<svg width="24" height="24" viewBox="0 0 24 24" fill="none" xmlns="http://www.w3.org/2000/svg">
<path d="M17.796 6.7H18.849C20.037 6.7 21 7.663 21 8.851V18.058C21 19.246 20.037 20.209 18.849 20.209H5.151C3.963 20.2 3 19.237 3 18.049V8.851C3 7.663 3.963 6.7 5.151 6.7H6.204C6.978 6.7 7.671 6.205 7.914 5.467L7.995 5.233C8.238 4.495 8.922 4 9.696 4H14.304C15.078 4 15.771 4.495 16.014 5.233L16.095 5.467C16.338 6.205 17.022 6.7 17.796 6.7Z" stroke="black" stroke-width="1.5" stroke-miterlimit="10"/>
<path d="M11.9999 16.6004C13.9881 16.6004 15.5999 14.9886 15.5999 13.0004C15.5999 11.0122 13.9881 9.40039 11.9999 9.40039C10.0117 9.40039 8.3999 11.0122 8.3999 13.0004C8.3999 14.9886 10.0117 16.6004 11.9999 16.6004Z" stroke="black" stroke-width="1.5" stroke-miterlimit="10"/>
</svg>
