<svg width="25" height="25" viewBox="0 0 25 25" fill="none" xmlns="http://www.w3.org/2000/svg">
<path d="M21.7915 10.5032L20.8056 14.7084C19.9605 18.3403 18.2905 19.8091 15.1516 19.5073C14.6486 19.467 14.1053 19.3765 13.5218 19.2356L11.8316 18.8332C7.63642 17.8372 6.33862 15.7648 7.32454 11.5595L8.31047 7.34416C8.51168 6.48902 8.75313 5.74455 9.05495 5.13086C10.232 2.69622 12.2341 2.04229 15.5943 2.83707L17.2744 3.22943C21.4897 4.21536 22.7774 6.29787 21.7915 10.5032Z" stroke="white" stroke-width="1.50907" stroke-linecap="round" stroke-linejoin="round"/>
<path d="M15.1521 19.5073C14.5284 19.9298 13.7436 20.2819 12.7879 20.5938L11.1983 21.117C7.20433 22.4047 5.10169 21.3282 3.80389 17.3342L2.51614 13.3603C1.2284 9.36632 2.29481 7.25362 6.28882 5.96588L7.87838 5.44273C8.29086 5.31195 8.68322 5.20128 9.05545 5.13086C8.75364 5.74455 8.51219 6.48902 8.31098 7.34416L7.32505 11.5595C6.33913 15.7648 7.63693 17.8372 11.8321 18.8332L13.5223 19.2356C14.1058 19.3765 14.6491 19.467 15.1521 19.5073Z" stroke="white" stroke-width="1.50907" stroke-linecap="round" stroke-linejoin="round"/>
</svg>
