<svg width="23" height="23" viewBox="0 0 23 23" fill="none" xmlns="http://www.w3.org/2000/svg">
<path d="M5.01743 11.4941C4.74875 11.2255 4.74875 10.7898 5.01743 10.5212L6.85206 8.68653C7.12074 8.41786 7.55635 8.41786 7.82502 8.68653C8.0937 8.95521 8.0937 9.39082 7.82502 9.6595L7.16486 10.3197L13.7598 10.3197C14.1397 10.3197 14.4478 10.6277 14.4478 11.0077C14.4478 11.3876 14.1397 11.6956 13.7598 11.6956L7.16486 11.6956L7.82502 12.3558C8.0937 12.6245 8.0937 13.0601 7.82502 13.3288C7.55635 13.5974 7.12074 13.5974 6.85206 13.3288L5.01743 11.4941Z" fill="white"/>
<path fill-rule="evenodd" clip-rule="evenodd" d="M12.7923 1.14648H13.8103C15.0648 1.14647 16.076 1.14645 16.8713 1.25337C17.697 1.36438 18.3922 1.60187 18.9443 2.15402C19.4965 2.70617 19.734 3.40138 19.845 4.22707C19.9519 5.02235 19.9519 6.03353 19.9519 7.28805V14.7273C19.9519 15.9818 19.9519 16.9929 19.845 17.7882C19.734 18.6139 19.4965 19.3091 18.9443 19.8613C18.3922 20.4134 17.697 20.6509 16.8713 20.7619C16.076 20.8689 15.0648 20.8688 13.8103 20.8688H12.7923C11.5378 20.8688 10.5266 20.8689 9.73133 20.7619C8.90565 20.6509 8.21044 20.4134 7.65829 19.8613C7.29234 19.4953 7.06397 19.0657 6.91937 18.5754C6.04667 18.5742 5.31958 18.5646 4.7305 18.4854C4.02972 18.3912 3.42214 18.1873 2.93716 17.7023C2.45218 17.2173 2.24828 16.6098 2.15406 15.909C2.06393 15.2386 2.06394 14.3894 2.06397 13.3502V8.6651C2.06394 7.62595 2.06393 6.77674 2.15406 6.10632C2.24828 5.40553 2.45218 4.79796 2.93716 4.31298C3.42214 3.828 4.02972 3.62409 4.7305 3.52988C5.31958 3.45068 6.04667 3.44108 6.91937 3.43993C7.06397 2.94958 7.29234 2.51997 7.65829 2.15402C8.21044 1.60187 8.90565 1.36438 9.73133 1.25337C10.5266 1.14645 11.5378 1.14647 12.7923 1.14648ZM6.65236 15.5981C6.65565 16.1893 6.66541 16.7219 6.69903 17.1987C5.93354 17.1957 5.36447 17.1823 4.91385 17.1217C4.36564 17.048 4.09684 16.9161 3.91013 16.7294C3.72342 16.5427 3.59147 16.2738 3.51777 15.7256C3.4414 15.1576 3.43994 14.4015 3.43994 13.3009V8.71436C3.43994 7.61384 3.4414 6.85766 3.51777 6.28966C3.59147 5.74146 3.72342 5.47265 3.91013 5.28594C4.09684 5.09923 4.36564 4.96729 4.91385 4.89358C5.36447 4.833 5.93354 4.81956 6.69903 4.81659C6.66541 5.29343 6.65565 5.82599 6.65236 6.41723C6.65024 6.79719 6.95655 7.10693 7.33651 7.10904C7.71646 7.11116 8.0262 6.80485 8.02831 6.42489C8.0339 5.42181 8.05995 4.71081 8.15906 4.1712C8.25457 3.65126 8.40793 3.35031 8.63125 3.12698C8.88513 2.8731 9.24157 2.70758 9.91468 2.61708C10.6076 2.52392 11.5259 2.52246 12.8426 2.52246H13.76C15.0767 2.52246 15.995 2.52392 16.6879 2.61708C17.361 2.70758 17.7175 2.8731 17.9714 3.12698C18.2252 3.38086 18.3908 3.73731 18.4813 4.41041C18.5744 5.10331 18.5759 6.02165 18.5759 7.33838V14.6769C18.5759 15.9937 18.5744 16.912 18.4813 17.6049C18.3908 18.278 18.2252 18.6344 17.9714 18.8883C17.7175 19.1422 17.361 19.3077 16.6879 19.3982C15.995 19.4914 15.0767 19.4928 13.76 19.4928H12.8426C11.5259 19.4928 10.6076 19.4914 9.91468 19.3982C9.24157 19.3077 8.88513 19.1422 8.63125 18.8883C8.40793 18.665 8.25457 18.364 8.15906 17.8441C8.05995 17.3045 8.0339 16.5935 8.02831 15.5904C8.0262 15.2105 7.71646 14.9041 7.33651 14.9063C6.95655 14.9084 6.65024 15.2181 6.65236 15.5981Z" fill="white"/>
</svg>
