<svg width="22" height="22" viewBox="0 0 22 22" fill="none" xmlns="http://www.w3.org/2000/svg">
<path d="M14.9651 16.2234H11.4439L7.52664 18.829C6.94565 19.2163 6.1622 18.8026 6.1622 18.0984V16.2234C3.52133 16.2234 1.76074 14.4628 1.76074 11.8219V6.54013C1.76074 3.89926 3.52133 2.13867 6.1622 2.13867H14.9651C17.606 2.13867 19.3666 3.89926 19.3666 6.54013V11.8219C19.3666 14.4628 17.606 16.2234 14.9651 16.2234Z" stroke="white" stroke-width="1.32044" stroke-miterlimit="10" stroke-linecap="round" stroke-linejoin="round"/>
<path d="M10.5633 9.9994V9.81457C10.5633 9.21597 10.9331 8.89905 11.3028 8.64377C11.6637 8.39729 12.0246 8.08039 12.0246 7.4994C12.0246 6.68953 11.3732 6.03809 10.5633 6.03809C9.75344 6.03809 9.10205 6.68953 9.10205 7.4994" stroke="white" stroke-width="1.32044" stroke-linecap="round" stroke-linejoin="round"/>
<path d="M10.5597 12.1042H10.5676" stroke="white" stroke-width="1.32044" stroke-linecap="round" stroke-linejoin="round"/>
</svg>
