<svg width="32" height="32" viewBox="0 0 32 32" fill="none" xmlns="http://www.w3.org/2000/svg">
<path fill-rule="evenodd" clip-rule="evenodd" d="M7.4991 5.89881C5.28712 6.90991 3.66663 9.31486 3.66663 12.1827C3.66663 15.1125 4.86558 17.3709 6.58434 19.3062C8.00093 20.9014 9.71574 22.2234 11.3881 23.5127C11.7853 23.8189 12.1802 24.1233 12.568 24.4291C13.2694 24.982 13.8951 25.4673 14.4981 25.8196C15.1015 26.1722 15.5872 26.3332 16 26.3332C16.4128 26.3332 16.8984 26.1722 17.5018 25.8196C18.1049 25.4673 18.7305 24.982 19.4319 24.4291C19.8198 24.1233 20.2146 23.8189 20.6118 23.5127C22.2842 22.2234 23.999 20.9014 25.4156 19.3062C27.1343 17.3709 28.3333 15.1125 28.3333 12.1827C28.3333 9.31486 26.7128 6.90991 24.5008 5.89881C22.3519 4.91652 19.4644 5.17665 16.7204 8.02753C16.5319 8.22339 16.2718 8.33406 16 8.33406C15.7281 8.33406 15.468 8.22339 15.2795 8.02753C12.5355 5.17665 9.64805 4.91652 7.4991 5.89881ZM16 5.94497C12.9172 3.18687 9.46524 2.80104 6.66764 4.07983C3.71291 5.43045 1.66663 8.56659 1.66663 12.1827C1.66663 15.7367 3.14729 18.4479 5.08892 20.6343C6.64379 22.3851 8.54692 23.8505 10.2277 25.1447C10.6087 25.438 10.9783 25.7226 11.3299 25.9997C12.0128 26.5381 12.746 27.1122 13.4891 27.5464C14.2318 27.9804 15.0794 28.3332 16 28.3332C16.9205 28.3332 17.7681 27.9804 18.5109 27.5464C19.2539 27.1122 19.9871 26.5381 20.6701 25.9997C21.0216 25.7226 21.3912 25.438 21.7722 25.1447C23.453 23.8505 25.3561 22.3851 26.911 20.6343C28.8526 18.4479 30.3333 15.7367 30.3333 12.1827C30.3333 8.56659 28.287 5.43045 25.3323 4.07983C22.5347 2.80104 19.0827 3.18687 16 5.94497Z" fill="#1C274C"/>
</svg>
