<svg width="18" height="18" viewBox="0 0 18 18" fill="none" xmlns="http://www.w3.org/2000/svg">
<path d="M12.6107 8.57414C12.6107 8.41037 12.6107 8.27116 12.6107 8.12376C12.6107 7.84534 12.8154 7.64062 13.0693 7.64062C13.3313 7.64062 13.5278 7.83716 13.536 8.11557C13.536 8.26297 13.536 8.40218 13.536 8.56595C13.7244 8.56595 13.9045 8.56595 14.0847 8.56595C14.3549 8.56595 14.6333 8.56595 14.9035 8.56595C15.182 8.56595 15.3867 8.76249 15.3949 9.01634C15.3949 9.27838 15.2065 9.47491 14.9281 9.49947C14.879 9.49947 14.8053 9.54042 14.7971 9.58136C14.5596 10.2938 14.1993 10.9407 13.7162 11.5385C13.9127 11.7022 14.101 11.866 14.2976 12.0298C14.4368 12.1444 14.576 12.2509 14.707 12.3574C14.9527 12.5539 15.0018 12.8323 14.8217 13.0534C14.6497 13.2745 14.3713 13.2909 14.1174 13.0861C13.8226 12.8487 13.536 12.6112 13.2412 12.3655C13.1839 12.3164 13.1266 12.2755 13.0611 12.2181C13.0037 12.2673 12.9546 12.3082 12.8973 12.3574C12.5943 12.603 12.2995 12.8487 11.9965 13.0943C11.7509 13.2909 11.4643 13.2663 11.3005 13.0452C11.1367 12.8241 11.1777 12.5621 11.4233 12.3655C11.7591 12.0953 12.0866 11.8251 12.3896 11.5876C12.1194 11.1208 11.8491 10.6787 11.6035 10.2283C11.497 10.0399 11.4397 9.82702 11.366 9.6223C11.3414 9.54861 11.3169 9.50766 11.2186 9.49947C10.932 9.49128 10.7437 9.28657 10.7437 9.03271C10.7437 8.77067 10.9566 8.57414 11.2432 8.57414C11.6854 8.57414 12.1357 8.57414 12.6025 8.57414H12.6107ZM13.8308 9.51585H12.3241C12.5042 10.0072 12.7499 10.4494 13.0774 10.8588C13.405 10.4412 13.6507 10.0072 13.8308 9.51585Z" fill="white"/>
<path d="M5.65005 8.09893H4.36442C4.26615 8.58207 4.17608 9.05702 4.07781 9.54015C4.0123 9.85952 3.72569 10.0315 3.44728 9.92503C3.22618 9.84314 3.11154 9.62204 3.16067 9.36819C3.39814 8.18082 3.63562 7.00164 3.87309 5.81427C3.9386 5.47853 4.00411 5.14279 4.07781 4.81524C4.14332 4.51226 4.3071 4.37305 4.61827 4.37305C4.88031 4.37305 5.14235 4.37305 5.41258 4.37305C5.72375 4.37305 5.88753 4.51226 5.95304 4.82343C6.25602 6.33835 6.55901 7.86146 6.87018 9.37638C6.9275 9.6548 6.77191 9.90046 6.50987 9.94959C6.25602 10.0069 6.01855 9.83495 5.95304 9.54834C5.85477 9.06521 5.75651 8.59026 5.65824 8.09893H5.65005ZM5.46171 7.15722C5.33888 6.53488 5.21605 5.92891 5.09322 5.30657H4.92125C4.79842 5.92072 4.67559 6.53488 4.55276 7.15722H5.46171Z" fill="white"/>
<path d="M15.3539 3.2755H8.93394L8.77016 1.97349C8.63095 0.851631 7.67287 0 6.53463 0H2.25191C1.00722 0 0 1.00722 0 2.25191V12.0784C0 13.3231 1.00722 14.3303 2.25191 14.3303H5.45371L5.58473 15.5832C5.70756 16.7378 6.66565 17.6058 7.82845 17.6058H15.3621C16.6068 17.6058 17.614 16.5986 17.614 15.3539V5.52741C17.614 4.28272 16.6068 3.2755 15.3621 3.2755H15.3539ZM1.22831 12.0784V2.25191C1.22831 1.68688 1.68688 1.22831 2.25191 1.22831H6.53463C7.05052 1.22831 7.48453 1.61319 7.55004 2.12908L8.77835 11.9556C8.8111 12.2504 8.72922 12.537 8.53269 12.7581C8.33616 12.9792 8.06593 13.102 7.76294 13.102H2.25191C1.68688 13.102 1.22831 12.6434 1.22831 12.0784ZM16.3775 15.3539C16.3775 15.9189 15.9189 16.3775 15.3539 16.3775H7.82026C7.29618 16.3775 6.85399 15.9845 6.80486 15.4604L6.69022 14.3303H7.77113C8.41804 14.3303 9.0322 14.0519 9.45802 13.5688C9.88383 13.0856 10.0804 12.4387 10.0067 11.8L9.09771 4.50382H15.3621C15.9271 4.50382 16.3857 4.96239 16.3857 5.52741V15.3539H16.3775Z" fill="white"/>
</svg>
