<svg width="32" height="32" viewBox="0 0 32 32" fill="none" xmlns="http://www.w3.org/2000/svg">
<path fill-rule="evenodd" clip-rule="evenodd" d="M13.2581 4.33301H18.7418C21.1922 4.33299 23.133 4.33297 24.652 4.53719C26.2152 4.74736 27.4805 5.19018 28.4783 6.188C29.4761 7.18582 29.9189 8.45108 30.1291 10.0143C30.3333 11.5333 30.3333 13.4741 30.3333 15.9245V16.0749C30.3333 18.5252 30.3333 20.4661 30.1291 21.985C29.9189 23.5483 29.4761 24.8135 28.4783 25.8114C27.4805 26.8092 26.2152 27.252 24.652 27.4622C23.133 27.6664 21.1922 27.6664 18.7418 27.6663H13.2581C10.8077 27.6664 8.86688 27.6664 7.34793 27.4622C5.7847 27.252 4.51943 26.8092 3.52162 25.8114C2.5238 24.8135 2.08098 23.5483 1.87081 21.985C1.66659 20.4661 1.66661 18.5252 1.66663 16.0749V15.9245C1.66661 13.4741 1.66659 11.5333 1.87081 10.0143C2.08098 8.45108 2.5238 7.18582 3.52162 6.188C4.51943 5.19018 5.7847 4.74736 7.34793 4.53719C8.86688 4.33297 10.8077 4.33299 13.2581 4.33301ZM7.61443 6.51935C6.27297 6.69971 5.50011 7.03793 4.93583 7.60221C4.37155 8.16649 4.03333 8.93935 3.85297 10.2808C3.66875 11.651 3.66663 13.4572 3.66663 15.9997C3.66663 18.5421 3.66875 20.3483 3.85297 21.7185C4.03333 23.06 4.37155 23.8329 4.93583 24.3971C5.50011 24.9614 6.27297 25.2996 7.61442 25.48C8.98464 25.6642 10.7909 25.6663 13.3333 25.6663H18.6666C21.2091 25.6663 23.0153 25.6642 24.3855 25.48C25.7269 25.2996 26.4998 24.9614 27.0641 24.3971C27.6284 23.8329 27.9666 23.06 28.1469 21.7185C28.3312 20.3483 28.3333 18.5421 28.3333 15.9997C28.3333 13.4572 28.3312 11.651 28.1469 10.2808C27.9666 8.93935 27.6284 8.16649 27.0641 7.60221C26.4998 7.03793 25.7269 6.69971 24.3855 6.51935C23.0153 6.33513 21.2091 6.33301 18.6666 6.33301H13.3333C10.7909 6.33301 8.98464 6.33513 7.61443 6.51935ZM7.23174 10.0262C7.5853 9.60188 8.21587 9.54456 8.64014 9.89812L11.5187 12.2969C12.7626 13.3335 13.6263 14.0509 14.3554 14.5198C15.0612 14.9738 15.5399 15.1262 16 15.1262C16.4601 15.1262 16.9387 14.9738 17.6445 14.5198C18.3737 14.0509 19.2373 13.3335 20.4813 12.2969L23.3598 9.89812C23.7841 9.54456 24.4146 9.60188 24.7682 10.0262C25.1217 10.4504 25.0644 11.081 24.6401 11.4346L21.7115 13.8751C20.5297 14.86 19.5718 15.6582 18.7264 16.202C17.8457 16.7684 16.9881 17.1262 16 17.1262C15.0119 17.1262 14.1542 16.7684 13.2735 16.202C12.4281 15.6582 11.4702 14.86 10.2884 13.8751L7.35978 11.4346C6.9355 11.081 6.87817 10.4504 7.23174 10.0262Z" fill="#1C274C"/>
</svg>
