<svg width="32" height="32" viewBox="0 0 32 32" fill="none" xmlns="http://www.w3.org/2000/svg">
<path fill-rule="evenodd" clip-rule="evenodd" d="M22 3C19.6068 3 17.6667 4.9401 17.6667 7.33333C17.6667 7.59454 17.6898 7.85035 17.7341 8.09883L11.4266 12.5141C11.3945 12.5365 11.3642 12.5605 11.3356 12.5859C10.5999 12.01 9.67342 11.6667 8.66671 11.6667C6.27347 11.6667 4.33337 13.6068 4.33337 16C4.33337 18.3932 6.27347 20.3333 8.66671 20.3333C9.67342 20.3333 10.5999 19.99 11.3356 19.4141C11.3642 19.4395 11.3945 19.4635 11.4266 19.4859L17.7341 23.9012C17.6898 24.1496 17.6667 24.4055 17.6667 24.6667C17.6667 27.0599 19.6068 29 22 29C24.3933 29 26.3334 27.0599 26.3334 24.6667C26.3334 22.2734 24.3933 20.3333 22 20.3333C20.5963 20.3333 19.3485 21.0008 18.5566 22.0356L12.5841 17.8549C12.8508 17.2926 13 16.6637 13 16C13 15.3363 12.8508 14.7074 12.5841 14.1451L18.5566 9.9644C19.3485 10.9992 20.5963 11.6667 22 11.6667C24.3933 11.6667 26.3334 9.72657 26.3334 7.33333C26.3334 4.9401 24.3933 3 22 3ZM19.6667 7.33333C19.6667 6.04467 20.7114 5 22 5C23.2887 5 24.3334 6.04467 24.3334 7.33333C24.3334 8.622 23.2887 9.66667 22 9.66667C20.7114 9.66667 19.6667 8.622 19.6667 7.33333ZM8.66671 13.6667C7.37804 13.6667 6.33337 14.7113 6.33337 16C6.33337 17.2887 7.37804 18.3333 8.66671 18.3333C9.95537 18.3333 11 17.2887 11 16C11 14.7113 9.95537 13.6667 8.66671 13.6667ZM22 22.3333C20.7114 22.3333 19.6667 23.378 19.6667 24.6667C19.6667 25.9553 20.7114 27 22 27C23.2887 27 24.3334 25.9553 24.3334 24.6667C24.3334 23.378 23.2887 22.3333 22 22.3333Z" fill="#1C274C"/>
</svg>
