<svg width="22" height="22" viewBox="0 0 22 22" fill="none" xmlns="http://www.w3.org/2000/svg">
<path d="M10.8147 17.354C14.4263 17.354 17.354 14.4263 17.354 10.8147C17.354 7.20314 14.4263 4.27539 10.8147 4.27539C7.20314 4.27539 4.27539 7.20314 4.27539 10.8147C4.27539 14.4263 7.20314 17.354 10.8147 17.354Z" stroke="white" stroke-width="1.50907" stroke-linecap="round" stroke-linejoin="round"/>
<path d="M17.998 17.998L17.8673 17.8673M17.8673 3.76248L17.998 3.63169L17.8673 3.76248ZM3.63169 17.998L3.76248 17.8673L3.63169 17.998ZM10.8149 0.834878V0.754395V0.834878ZM10.8149 20.8753V20.7949V20.8753ZM0.834878 10.8149H0.754395H0.834878ZM20.8753 10.8149H20.7949H20.8753ZM3.76248 3.76248L3.63169 3.63169L3.76248 3.76248Z" stroke="white" stroke-width="1.50907" stroke-linecap="round" stroke-linejoin="round"/>
</svg>
